/* XPM */
static char *result[] = {
/* columns rows colors chars-per-pixel */
"32 32 5 1 ",
"  c #140E0E",
". c #1A1512",
"X c #231F19",
"o c #2B2821",
"O c #3F3628",
/* pixels */
" o ...OOoo    .. o....  oo    ..",
" oo.oOOoooo .OOo oo.o  oooo .OOo",
"oX.  oooXX  ooo oX...oooXX  oooo",
"..     .XOOo.. o.. .......OO..Xo",
".oo.  .oooOO.. .... ..o..OOOo...",
"XooOOO..ooo.. o.X.. .ooo..ooOoo.",
" XooOO...o.. o...X.. oooo.XXoo..",
" .. ...... O o    XX .XXXXX..   ",
".   .X....  o .OOO... .XXoOO. .O",
"..  ..OO..  o.ooooO.. OO  oO .oo",
"  .. Oooo.  XXXoooo oO    oo  oo",
" ..XXooX.. XXX.oo. XX  X...XX  o",
" OO.XX  ooXX........XX..oo.     ",
"ooOO   oo . OO..oo.....ooo      ",
".oooX XXX X. ....oooX.....X   oo",
"..oXX     .X .....oXX..   .  oo.",
"oo    OOoo... ..oo....OOoo    ..",
"ooo  OOoooo.. Ooooo.oOOoo   .OOo",
"oX.  oooXX..oo ooX...ooo X  oo o",
"..     ...OO.. o.......  .OO.  o",
"                  o.... oOOOo ..",
"XooXXO  ooooOo .Xoo... .ooooO o.",
".XooOXX .XXooo...Xoo. ...XXo o..",
"  XXooXX X        XXo  .....    ",
"OO  oX XXXXO  .     oX   oOO. .O",
"ooO.  OOXXXXO....  .  OO..oOO.oo",
"ooo ooooo    .... . oOooo.  o.oo",
"o. XXooX.. XX... . XXooX      .o",
"....XX..oo.   ...O      oo    ..",
"oo.....ooo  OOo.ooOO...ooo  OOo.",
".oooX.XXX.Xooooo.oooX.XXX.Xooooo",
"..oXX..   .XXoo...oXX..   .XXoo."
};
