/* XPM */
static char *result[] = {
/* columns rows colors chars-per-pixel */
"32 32 207 2 ",
"   c #564B34",
".  c #5B4E35",
"X  c #5A4F38",
"o  c #5E5235",
"O  c #5D5A34",
"+  c #5D523A",
"@  c #5F593A",
"#  c #635436",
"$  c #695735",
"%  c #625C35",
"&  c #6B5937",
"*  c #63553A",
"=  c #685739",
"-  c #655A3B",
";  c #6B5B3C",
":  c #775F33",
">  c #705E3D",
",  c #5F762C",
"<  c #5E6232",
"1  c #61732F",
"2  c #637C2E",
"3  c #646335",
"4  c #6A6236",
"5  c #646C33",
"6  c #6A6D36",
"7  c #656239",
"8  c #6A643B",
"9  c #6B6B3B",
"0  c #76643A",
"q  c #647132",
"w  c #6A7534",
"e  c #667930",
"r  c #6B7C34",
"t  c #6D733A",
"y  c #6F7B3C",
"u  c #737937",
"i  c #74733C",
"p  c #737B3B",
"a  c #36576A",
"s  c #3A5B6D",
"d  c #3D5F71",
"f  c #5C5746",
"g  c #5B5848",
"h  c #625741",
"j  c #645942",
"k  c #6B5E43",
"l  c #625C4A",
"z  c #695F48",
"x  c #705F40",
"c  c #625F51",
"v  c #6E6147",
"b  c #65604E",
"n  c #6C624B",
"m  c #736343",
"M  c #746A43",
"N  c #796847",
"B  c #72654A",
"V  c #75694C",
"C  c #7A6B4C",
"Z  c #7A7747",
"A  c #666657",
"S  c #6B6653",
"D  c #6C6C5D",
"F  c #756B54",
"G  c #7A6D53",
"H  c #726F5D",
"J  c #7B7156",
"K  c #7E735A",
"L  c #405C6A",
"P  c #5D6B68",
"I  c #436576",
"U  c #466877",
"Y  c #466778",
"T  c #46687A",
"R  c #4A6C7D",
"E  c #516D7A",
"W  c #676C64",
"Q  c #616F6D",
"!  c #6A7169",
"~  c #747364",
"^  c #7A7866",
"/  c #687878",
"(  c #737C74",
")  c #767E78",
"_  c #81765A",
"`  c #837A63",
"'  c #857D68",
"]  c #65852D",
"[  c #698C2E",
"{  c #6D902F",
"}  c #6C8533",
"|  c #6D8C32",
" . c #6F8538",
".. c #728436",
"X. c #728C35",
"o. c #74813C",
"O. c #778A3A",
"+. c #7A8C3B",
"@. c #6F9431",
"#. c #6F9832",
"$. c #729433",
"%. c #789537",
"&. c #749C34",
"*. c #7A9D36",
"=. c #779139",
"-. c #7B9339",
";. c #7D9B39",
":. c #76A235",
">. c #7CA536",
",. c #7DA837",
"<. c #7EA339",
"1. c #7EA938",
"2. c #7C8643",
"3. c #7F9942",
"4. c #7A8076",
"5. c #83973E",
"6. c #80A637",
"7. c #80A837",
"8. c #82A539",
"9. c #88A33E",
"0. c #83AC39",
"q. c #89AF3C",
"w. c #86B03A",
"e. c #8AB43B",
"r. c #8FB83C",
"t. c #90B73E",
"y. c #92BA3D",
"u. c #859946",
"i. c #84934E",
"p. c #878858",
"a. c #87A544",
"s. c #87826B",
"d. c #80857B",
"f. c #869978",
"g. c #82A078",
"h. c #4C6E80",
"j. c #4E7283",
"k. c #517686",
"l. c #537887",
"z. c #537688",
"x. c #557A89",
"c. c #5A7D8D",
"v. c #5A7F92",
"b. c #687E84",
"n. c #5D808F",
"m. c #5E8291",
"M. c #6D8287",
"N. c #60818F",
"B. c #738484",
"V. c #798886",
"C. c #738689",
"Z. c #7A8B8B",
"A. c #638593",
"S. c #6B8794",
"D. c #668896",
"F. c #698997",
"G. c #628699",
"H. c #658A9B",
"J. c #6C8C99",
"K. c #738B92",
"L. c #7B8E91",
"P. c #718F9C",
"I. c #6E909D",
"U. c #7C9294",
"Y. c #73919D",
"T. c #7E969D",
"R. c #7F989E",
"E. c #648CA2",
"W. c #698EA2",
"Q. c #6D92A4",
"!. c #6492AA",
"~. c #6E95A9",
"^. c #7494A3",
"/. c #7A96A2",
"(. c #7D99A5",
"). c #7196A9",
"_. c #7499AC",
"`. c #7B9CAC",
"'. c #6F9CB2",
"]. c #769DB0",
"[. c #7A9FB1",
"{. c #7CA2B5",
"}. c #75A2B9",
"|. c #7DA5B9",
" X c #7BA9C2",
".X c #838D89",
"XX c #879E89",
"oX c #81969A",
"OX c #84989A",
"+X c #8EAC86",
"@X c #839CA4",
"#X c #849FA8",
"$X c #8AA0A4",
"%X c #83A1AE",
"&X c #83A4B4",
"*X c #8AA9B4",
"=X c #81A7BA",
"-X c #83A9BD",
";X c #8BACBC",
":X c #90B0BE",
">X c #91B4BC",
",X c #85ADC1",
"<X c #89AFC2",
"1X c #8AB1C5",
"2X c #8CB4CA",
"3X c #91B5C6",
"4X c #92BBD1",
/* pixels */
"q.,.0.e.>.7.0.0.,.>.7.,.0.w.7.e.0.7.0.q.6.7.7.0.7.,.0.,.0.e.,.e.",
"&.0.7.,.,.e.r.e.e.e.r.7.r.,.,.0.:.0.7.7.7.e.y.w.w.e.e.0.r.,.,.e.",
"e.e.e.r.y.y.r.r.y.r.y.0.>.&.&.:.7.,.:.7.y.y.r.r.y.r.y.w.1.,.0.,.",
"e.0.0.,.7.q.e.e.0.,.&.:.1 5 6 7 % 5 5 e &.{ 0.e.0.,.w.,.:.,.e.e.",
"0.,.7.7.0.w.w.:.&.$.] < * = * = ; + . # 3 , } :.:.,.e.,.e.e.1.e.",
"0.0.r.y.a.r.,.#.[ 6 O o = # j = v + z # * # % >.7.w.w.r.e.e.r.e.",
"w.:.w.,.e.7.{ [ w o o . * * x * B n G X j = 7 1 | @.>.w.,.1.1.e.",
">.w.e.r.,.&.*.O $ $ $ o . # G h h S k # & * = .   X.:.:.,.#.:.e.",
",.r.e.e.q.*.3 o # o o D c j G G h z o * # ; x X o 7 1 7.0.e.r.w.",
"0.w.1.>.0.=.O = & & j B.&X=X=X&X%X*Xb.z o X # z N m o X.w.,.,.e.",
"0.e.1.>.X.6 . ; 0 s.R._._.2XG.v.G.E.,X#Xc * C m m > # %.w.,.:.w.",
"0.e.7.$.u o . + ' $X-X{.|._.).^.[.).,X2X)./.S . > * m % [ r.w.,.",
"r.y.0.X.$ o & @ B.;X2XW.W.).z.z.v.F.v.,XG.z.L.S ; # m * 2 ,.:.w.",
"0.0.&.q o o 0 V OX=XW.R k.z.x.c.S.v.c.F.=XG.P oXl = = 4 X.>.e.w.",
"e.0.} o o o : V ( =Xc.R j.k.l.c.b.v.k.k.x.).=XoX+ . # 4 ;.e.r.r.",
"r.,.;.9 & # o F U.G.c.c.z.l.l.l.z.A.A.c.c.A.[.<XH o # # O &.0.0.",
"q.&.| % m N m ^ &Xm.l.A.J.I.m.m.G.F.P./.F.c.k.W.Z.* + o } >.0.e.",
"&.>.=.7 v m V 4.&X{.c.k.D.x.c.n.F.m.x.A.F.J.J.=XL.- - 9 r ,.,.0.",
"e.r.q.+.9 n B V.-X-Xn.A.c.l.l.l.c.A.c.A.c.k.&X<XV.n 8  . .,.0.0.",
"e.,.<.| Z G * oX{.<XI.n.m.I.J.F.A.S.J.Y.P.v.Q.<XU.; 6 O.@.1.e.w.",
"1.0.,.%.2._ 4.*X-X}.).A.F.J.J.x.k.k.k.k.c.J.S.|.%X; * } 0.e.1.e.",
"0.0.7.&.o.0 C >X/.,Xk.j.k.x.c.l.k.k.k.k.k.c._.<XV.% 8 r *.e.e.e.",
"w.&.,.$.O.% l 3X`.{.Q.x.k.n.J.J.D.v.x.x.v.Q.<X*X~ 9 =.} #.1.1.e.",
",.w.w.r.8.-.p G OX{.m._.F.A.c.x.c.H._.-X)._.{.d.N ; q :.,.#.:.e.",
"0.r.e.e.w.8.-.u m oX{.{.).l.j.m.E.).{.-X,X^.A j 8 X.$.r.0.e.r.w.",
"0.w.,.>.0.,.*.o.4 & i.>X2X|.Q.Q.|.|.T.B.( C C 9 v +.y.r.e.>.,.w.",
"1.e.0.w.:.r.w.>.=.+.5.+X:X2X{.K.U.~ m k X 5.+.X.<.:.e.r.e.,.>.0.",
"0.e.r.r.y.y.e.7.q.9.*.=.Z J XX^ m N G p 8 5.7.{ r.w.:.6.w.r.w.>.",
"r.y.r.e.q.7.7.0.,.:.>.*.5.u X.9 i 2.u.X.} *.,.,.,.:.:.>.,.w.:.w.",
"e.r.w.,.6.0.,.&.7.w.7.r.0.%.8.7.;.q.9.,.,.w.,.&.7.e.7.e.0.>.w.w.",
"e.e.0.w.e.e.7.w.w.w.e.r.t.e.r.r.e.w.0.w.r.w.7.w.e.0.r.r.r.w.r.r.",
"e.,.0.w.,.:.,.6.,.w.e.7.>.w.w.0.r.,.w.w.,.:.,.7.7.0.w.w.:.w.w.0.",
};
