/* XPM */
static char *result[] = {
/* columns rows colors chars-per-pixel */
"32 32 13 1 ",
"  c #070707",
". c #140E0E",
"X c #1A1512",
"o c #1B1916",
"O c #231F19",
"+ c #23201D",
"@ c #2B2821",
"# c #2E2A25",
"$ c #312220",
"% c #3C3129",
"& c #3F3628",
"* c #454135",
"= c #555145",
/* pixels */
".@.XXX&&@@....XX.@XXXX..@@....XX",
".@ %%%%%%%%%%%%%%%%%%%%%%%%%% &@",
"@ %OOOOOOOOOOOOOOOOOOOOOOOOOO$ @",
"X %OO$$$$$$OOOOOOOOOOOOOOOOOO$ @",
"X $O$$$$$$$$OOOOOOOOOOOOOOOOO% X",
"O $$$$$$$$$$$$$$$$$$$$$$$O$OO% X",
".O%$$$$$$$$$$$$$$$$$$$$$$$$OO%OX",
".O%O$$$$$$$$$$$$$$$$$$$$$$$$O%O.",
"XO%O$$$$$$$$$$$$$$$$$$$$$$$$O%O&",
"XO*O$$$$$$$$$$$$$$$$$$$$$$$$O*O@",
".O*O$$$$$$$$$$$$$$$$$$$$$$O$O*O@",
".O*O$$$$$$$$$$$$$$$$$$$$$$$$O*O@",
".O*O$O$$$$$$$$$$$$$$$O$$$$$$O*O.",
"@O****************************O.",
"XO%%%%%%%%%%%%%%%%%%%%%%%%%%%%O@",
"XXO%%%%%%%%%%%%%%%%%%%%%%%%%%OXX",
"@@OOOOOOOOOOOOOOOOOOOOOOOOOOOOXX",
"@@XXXXXXXXXXXXXXXXXXXXXXXXXXXX&@",
"@OOOOO%%%%%OO%%%%%%OOO%%%%%OOO.@",
"XXO$$$OOOOO$O%%%%%%O$$OOOOO$$O.@",
"..O$$$$$$$$$O%%%%%%O$$$$$$$$$OXX",
"ooXOOO*===*OO%%%%%%OOO*===*O$Xoo",
"o%XOOO*%%%*OO%%%%%%OOO*%%%*O$X%o",
"o%XOOO%%%%*OO%%%%%%OOO%%%%*O$X%o",
"o%XOOO%%%%*O$%%%%%%$OO%%%%*O$X%o",
"o%X$OO%%%%%O$%%%%%%$OO%%%%%O$X%o",
"o*+X$$OOOOO$$OOOOOO$$$OOOOO$O+%o",
"o*+.OOOOOOOOOXXXXXXOOOOOOOOOX+*o",
"o*++XXXXXXXXXXXXXXXXXXXXXXXXX+*o",
"o*%%%##%%##%%%%%%%%%%##%%##%%%*o",
"o*%%%%%%%%%%%%%%%%%%%%%%%%%%%%*o",
"o==============================o"
};
