/* XPM */
static char *result[] = {
/* columns rows colors chars-per-pixel */
"32 32 160 2 ",
"   c #64882C",
".  c #698D2E",
"X  c #6E932F",
"o  c #6B8A32",
"O  c #718B38",
"+  c #6F9231",
"@  c #729533",
"#  c #749C34",
"$  c #799D35",
"%  c #769339",
"&  c #7C953D",
"*  c #779939",
"=  c #7C9B3B",
"-  c #76A236",
";  c #7BA436",
":  c #7EA937",
">  c #7DA539",
",  c #7EA938",
"<  c #7B8D41",
"1  c #809E3F",
"2  c #80A637",
"3  c #80A937",
"4  c #82A53B",
"5  c #83AD39",
"6  c #88AE3D",
"7  c #86B03A",
"8  c #8BB43C",
"9  c #8FB83C",
"0  c #90B73E",
"q  c #92BA3E",
"w  c #849547",
"e  c #849C43",
"r  c #879948",
"t  c #8B9B4B",
"y  c #8D9B51",
"u  c #949E54",
"i  c #989759",
"p  c #949E58",
"a  c #85A241",
"s  c #8AA445",
"d  c #86A940",
"f  c #8CAB44",
"g  c #8DA648",
"h  c #8EAE49",
"j  c #90AE44",
"k  c #92A54D",
"l  c #93AC4B",
"z  c #8EB143",
"x  c #92B343",
"c  c #94B943",
"v  c #94B14C",
"b  c #9BB34E",
"n  c #98B94A",
"m  c #97A552",
"M  c #99A456",
"N  c #96AC52",
"B  c #9BAD54",
"V  c #95A258",
"C  c #9CA45C",
"Z  c #9FAC5A",
"A  c #9CB252",
"S  c #A3AC57",
"D  c #A2A45C",
"F  c #A3AB5C",
"G  c #A1B354",
"H  c #A0B853",
"J  c #A3B55A",
"K  c #A9B35E",
"L  c #A5BA5A",
"P  c #ABBE5C",
"I  c #A29963",
"U  c #A7A267",
"Y  c #A9A366",
"T  c #A5AC62",
"R  c #ACAC65",
"E  c #ACA568",
"W  c #ABAC69",
"Q  c #B1A46C",
"!  c #B3AB6D",
"~  c #ABB263",
"^  c #ABB768",
"/  c #B1BD63",
"(  c #B8BD67",
")  c #B4B26B",
"_  c #B5BA6B",
"`  c #B9B86C",
"'  c #B5A572",
"]  c #BAA774",
"[  c #B5AD74",
"{  c #BAAC74",
"}  c #BCA778",
"|  c #BDAC79",
" . c #B7B270",
".. c #BBB372",
"X. c #BBBA71",
"o. c #B7B778",
"O. c #BEB17C",
"+. c #BEBE79",
"@. c #C1AF76",
"#. c #C4AD7D",
"$. c #C2B577",
"%. c #C3BC77",
"&. c #C3B27B",
"*. c #CAB57E",
"=. c #C3BA7C",
"-. c #CABB7E",
";. c #AEC064",
":. c #B4C267",
">. c #BBC26E",
",. c #BAC473",
"<. c #C8C477",
"1. c #C8C57C",
"2. c #BFAF80",
"3. c #BEB582",
"4. c #C6AE81",
"5. c #C9AF81",
"6. c #C5B382",
"7. c #CCB483",
"8. c #C4B982",
"9. c #CEBA85",
"0. c #CEB789",
"q. c #CEBA8A",
"w. c #D0B785",
"e. c #D2BA86",
"r. c #D8BF87",
"t. c #D0B788",
"y. c #D4BD8A",
"u. c #D8BF8A",
"i. c #D4BF91",
"p. c #C5C782",
"a. c #CEC386",
"s. c #CFC58E",
"d. c #CDC989",
"f. c #D4C085",
"g. c #DAC187",
"h. c #D6C08D",
"j. c #DBC38C",
"k. c #D7C988",
"l. c #DFC88D",
"z. c #D7C192",
"x. c #DBC593",
"c. c #DEC994",
"v. c #D7C398",
"b. c #DBC598",
"n. c #DECA9A",
"m. c #E0C78C",
"M. c #E2CB8E",
"N. c #E3CC94",
"B. c #E2CD9B",
"V. c #E6D096",
"C. c #E5D19C",
"Z. c #E8D29F",
"A. c #DFCEA1",
"S. c #E2CFA1",
"D. c #E5D3A3",
"F. c #E8D5A4",
"G. c #E6D6A9",
"H. c #E8D7AA",
"J. c #E9D9AC",
"K. c #E9DAB0",
/* pixels */
"8 3 7 8 3 5 5 8 5 : 7 , 7 8 5 9 z 3 8 8 3 5 5 6 3 5 5 , 7 8 5 8 ",
"- 5 3 3 , 8 9 5 8 8 8 5 8 : , 5 # 5 , , 3 8 q 5 8 8 8 7 8 , , 7 ",
"z 9 7 8 q q c 9 q 8 c 3 ; - # - z : # 3 q q q 9 9 8 c 7 : : 7 , ",
"8 5 7 : 3 7 8 7 7 : @ > y T C  .{ u C w # + 5 7 5 , 7 : ; , 8 7 ",
"5 : : 3 5 7 7 - # X o C &.*.-.*.&.9.e.&.D t = ; - : 9 : 8 8 , 8 ",
"5 7 9 q q 7 : X * C W 8.g.e.7.e.j.j.e.#.#.&...4 3 7 7 9 8 8 9 7 ",
"8 - 7 : 8 3 X % M 8.q.h.7.4.y.l.g.7.5.r.x.r...r * X : , : , , 9 ",
", 7 8 9 : @ f [ 9.g.l.h.i.n.l.r.7.7.m.D.F.c.e.&.{ s - - : # # 8 ",
"5 9 8 8 5 4 R @.e.r.c.N.D.D.y.7.e.l.V.F.z.y.e.g.e.{ t 2 3 7 q 7 ",
"5 7 : : 5 k Q } #.w.z.B.F.N.h.j.l.g.z.j.y.c.C.Z.N.*.{ 1 7 : 3 7 ",
"5 8 , ; 1 R | e.x.n.S.S.N.m.M.m.j.y.g.j.c.C.Z.V.V.h.{ f 3 : ; 7 ",
"5 8 5 a K @.*.z.b.b.z.y.y.N.N.S.C.c.M.M.M.N.N.N.V.C.9.! $ 8 8 : ",
"c 9 5 g ! ' 4.y.x.h.7.w.B.F.J.D.l.j.N.C.m.j.e.y.n.C.c.*.& , - 7 ",
"7 5 - T 8.z.S.B.g.7.h.F.J.H.n.t.h.D.C.c.e.7.e.y.c.N.c.| e ; 7 7 ",
"8 5 e s.b.D.c.t.e.j.H.J.G.n.y.v.H.F.c.y.y.l.B.B.V.B.r...H 9 q 9 ",
"9 , v o.q.q.7.y.N.B.D.B.b.y.i.D.V.m.j.l.N.V.B.y.7.7.*.&.Y 4 5 5 ",
"8 # s Q } 7.z.D.F.B.m.x.i.c.B.B.m.l.c.B.B.z.7.5.9.g.y.' k 5 5 8 ",
"- 4 s Y | B.H.S.N.b.i.i.c.b.m.m.l.j.N.b.9.7.y.m.N.z.9.E t , , 6 ",
"8 9 8 A =.S.B.N.b.S.B.N.x.u.u.c.b.c.z.e.y.c.B.F.D.B.=.k e : 5 3 ",
"9 5 4 1 ..y.c.S.B.b.i.i.e.y.B.D.B.x.u.N.C.D.G.H.D.N.! l * 5 8 7 ",
"> 5 : = B &.N.B.i.u.y.y.x.C.D.B.i.y.m.V.V.V.V.M.g.7.{ t 5 9 : 7 ",
"5 5 5 $ S &.j.z.i.i.z.B.V.V.N.e.e.V.F.F.Z.M.f.y.i.9. .m $ 8 9 8 ",
"8 # : @ B { 7.i.i.S.B.V.m.j.r.j.B.H.F.N.M.M.N.C.C.=.f N X 7 5 8 ",
", 7 8 9 8 A W i.A.N.N.V.y.e.g.l.B.V.e.7.j.D.F.D.h.O.y - : X - 7 ",
"5 c 8 7 8 x A ^ 6.q.B.N.l.l.g.y.j.y.7.B.K.J.D.c.=.g * 8 5 7 q 7 ",
"5 7 : ; , , d B [ =.( 9.e.e.7.7.r.j.B.J.J.C.e.E Y k q 9 7 3 3 7 ",
"5 8 , 8 - 9 8 6 A S G ) e.y.b.n.B.m.N.N.c.;.m 1 d # 9 9 8 : ; 7 ",
"7 8 8 9 q 0 8 , c x = l 1.j.d.D.N.r.-.Z =.H 5 @ 9 8 $ : 3 9 7 : ",
"q q 9 8 5 3 2 3 : - 3 d v _ l =.6.F G * e 4 , , : ; ; ; : 7 - 3 ",
"7 9 8 : 5 5 : # 3 8 5 9 5 g x z v x z : ; 7 : # 3 7 : 9 7 ; 7 8 ",
"9 8 5 7 7 7 5 7 8 , 8 8 c 8 9 9 9 8 5 7 8 8 3 7 8 3 8 8 9 8 9 9 ",
"8 : 7 7 3 - : 2 : 7 8 7 - 7 7 5 8 , 5 7 : - : 3 : 7 7 7 - 7 7 7 ",
"8 , d z =.i.y.0.b.F.B.r.7.r.N.M.N.D.Z.l.w.7.h.r.y.A.n.` L z 5 8 ",
};
