/* XPM */
static char *result[] = {
/* columns rows colors chars-per-pixel */
"32 32 120 2 ",
"   c #140E0E",
".  c #2B2821",
"X  c #1A1512",
"o  c #3F3628",
"O  c #38170A",
"+  c #231F19",
"@  c #2B0F06",
"#  c #8B6524",
"$  c #B79457",
"%  c #391509",
"&  c #1F2325",
"*  c #592B07",
"=  c #784B1F",
"-  c #99A6B0",
";  c #34383A",
":  c #484D4F",
">  c #595F61",
",  c #BAB8B7",
"<  c #A9ACB0",
"1  c #CACFC6",
"2  c #DDCFC2",
"3  c #161A1C",
"4  c #171C1D",
"5  c #202627",
"6  c #282F30",
"7  c #0E1112",
"8  c #3C2821",
"9  c #806547",
"0  c #8B6F52",
"q  c #553D35",
"w  c #131719",
"e  c #2D3939",
"r  c #432E28",
"t  c #4D3933",
"y  c white",
"u  c #2B3636",
"i  c #253131",
"p  c #DEE3E5",
"a  c #BFBEBC",
"s  c #283334",
"d  c #374748",
"f  c #202B2D",
"g  c #DCE1E3",
"h  c #000911",
"j  c #2B3533",
"k  c #6B7678",
"l  c #2C3A3D",
"z  c #E9E8E7",
"x  c #0081CD",
"c  c #003041",
"v  c #BBC1C1",
"b  c #9BA8B1",
"n  c #0041AE",
"m  c #54C7FF",
"M  c #547480",
"N  c #959D9E",
"B  c #ECF0F1",
"V  c #F2F2F1",
"C  c #BDBBBA",
"Z  c #A8D4F2",
"A  c #3F5256",
"S  c #A0AEB6",
"D  c #CBD2D6",
"F  c #D8D8D7",
"G  c #EBEEF0",
"H  c #A8BEE3",
"J  c #5E7171",
"K  c #76848A",
"L  c #DBDBDA",
"P  c #A6B2B8",
"I  c #C5C2BE",
"U  c #002EAE",
"Y  c #00ABFF",
"T  c #314041",
"R  c #6F878B",
"E  c #3C4C4D",
"W  c #9EABB3",
"Q  c #C8CED4",
"!  c #548DA8",
"~  c cyan",
"^  c #566D73",
"/  c #768F91",
"(  c #717E85",
")  c #718A8C",
"_  c #0061FF",
"`  c #003D7E",
"'  c #00A7FF",
"]  c #384A4E",
"[  c #485B5E",
"{  c #516569",
"}  c #707E84",
"|  c #CED5D7",
" . c #0080D9",
".. c #3D4F52",
"X. c #405051",
"o. c #53676B",
"O. c #A6B7BD",
"+. c #0041FF",
"@. c #001F65",
"#. c #00B6FF",
"$. c #005CCD",
"%. c #001F8C",
"&. c #007AFF",
"*. c #0099FF",
"=. c #0077FF",
"-. c #00D7FF",
";. c #A6D1FF",
":. c #0057FF",
">. c #002B8C",
",. c DeepSkyBlue",
"<. c #00E4FF",
"1. c #0082FF",
"2. c #006DFF",
"3. c #A6E2FF",
"4. c #0042CD",
"5. c #002C77",
"6. c #A6B5CF",
"7. c #002CA5",
"8. c #003D8C",
"9. c #002EFF",
/* pixels */
"  .   X X X o o . .         X X   . X X X X     . .         X X ",
"  . . X . o o . . . .   X o o O O . . X .     . . . .   X o o . ",
". + X     . . . + +     . . @ # $ O X X X . . . + +     . . . . ",
"X X           X + o o . X X @ % % O   X X X X X X X o o X X + . ",
"X . . X     X . . . o o X & % * = % &   X X . X X o o o . X X X ",
"+ . . o o o X X . . . X & - ; : > > , & X . . . X X . . o . . X ",
"  + . . o o X X X . X X   & < 1 2 < & X   . . . . X + + . . X X ",
"  X X   X X X X X X   o   3 4 5 6 6 7 +   X + + + + + X X       ",
"X       X + X X X X     . 3 8 9 0 q w X X   X + + . o o X   X o ",
"X X     X X o o X X     . 7 e r t y & X X   o o     . o   X . . ",
"    X X   o . . . X     + 7 u i p a &   . o         . .     . . ",
"  X X + + . . + X X   + + 7 s e p y & + +     + X X X + +     . ",
"  o o X + +     . . + + X 7 d f g y w X + + X X . . X           ",
". . o o       . .   X h 3 j k l p z y & & X X . . .             ",
"X . . . +   + + +   h x c f v f b p z y y & X X X X +       . . ",
"X X . + +         h n m M N d d b b B V C y &       X     . . X ",
". .         o o h n Z c f A d l S D F G y , y & . .         X X ",
". . .     o o . h H n c f A J e K L y F B P I & .       X o o . ",
". + X     . . h U M n Y c T R E K W F Q G y S a & +     . .   . ",
"X X           h n ! c x ~ c ^ / d ( b b g y ) - & X o o X     . ",
"              h _ ` ' c Y c ] [ R { } b | y ) R w o o o .   X X ",
"+ . . + + o   h n `  .c x Y c c ../ X.o.O.y c c w . . . o   . X ",
"X + . . o + + h +.@. .#.c c Y ~ c c c c O.y $.c h + + .   . X X ",
"    + + . . + h %.@. .&.*.=.c x -.Y x c ;.y :.$.h X X X         ",
"o o     . +   + h >.@.,.&.<.*.c c c c ;.y *.1.h   . o o X   X o ",
". . o X     o o h %.@.n  .&.&.*.<.' 2.3.y &.4.h X X . o o X . . ",
". . .   . . . . . h %.@.@.n #.&.&.&.;.y #.4.h . . X     . X . . ",
". X   + + . . + X X h %.+.@.@.5.6.y 5.$.7.h . +             X . ",
"X X X X + + X X . . X h h 8.%.9.%.%.7.h h       . .         X X ",
". . X X X X X . . .     o h h h h h h o X X X . . .     o o . X ",
"X . . . + X + + + X + . . . . . X . . . + X + + + X + . . . . . ",
"X X . + + X X       X + + . . X X X . + + X X       X + + . . X "
};
