/* XPM */
static char *result[] = {
/* columns rows colors chars-per-pixel */
"32 32 116 2 ",
"   c #2E2A25",
".  c #282420",
"X  c #211F1B",
"o  c #191513",
"O  c #140E0E",
"+  c #1A1512",
"@  c #332C26",
"#  c #2A2722",
"$  c #25221F",
"%  c #2C2823",
"&  c #2D2924",
"*  c #25221E",
"=  c #272320",
"-  c #201E1A",
";  c #3F3628",
":  c #2B2821",
">  c #3C3129",
",  c #23201D",
"<  c #24211E",
"1  c #201E1B",
"2  c #1F1C19",
"3  c #292521",
"4  c #1E1B18",
"5  c #1D1B18",
"6  c #1C1A17",
"7  c #27231C",
"8  c #231F19",
"9  c #211E1B",
"0  c gray3",
"q  c #090808",
"w  c #0A0909",
"e  c #0D0C0B",
"r  c #070707",
"t  c #100E0E",
"y  c #080707",
"u  c #151211",
"i  c #131110",
"p  c #1A1712",
"a  c #090908",
"s  c #0B0B0A",
"d  c #0C0B0A",
"f  c #0E0D0C",
"g  c #141110",
"h  c #0B0A0A",
"j  c #12100F",
"k  c #13100F",
"l  c #0A0A09",
"z  c #100F0E",
"x  c #181714",
"c  c #282520",
"v  c #362F24",
"b  c #0F0D0D",
"n  c #0F0D0C",
"m  c #0E0D0D",
"M  c #1D1A18",
"N  c #2D2823",
"B  c #342B25",
"V  c #292420",
"C  c #2B2621",
"Z  c #292621",
"A  c #372F28",
"S  c #221F1C",
"D  c #1B1916",
"F  c #141311",
"G  c #221F1B",
"H  c #0B0A09",
"J  c #151412",
"K  c #090909",
"L  c #151311",
"P  c #100F0D",
"I  c #171513",
"U  c #362E27",
"Y  c #23201C",
"T  c #161412",
"R  c #141210",
"E  c #11100E",
"W  c #1B1917",
"Q  c #0F0E0D",
"!  c #1A1715",
"~  c #25211D",
"^  c #0F0C0B",
"/  c #201C1A",
"(  c #161010",
")  c #1F1D1A",
"_  c #0C0A0A",
"`  c #473F35",
"'  c #312D27",
"]  c #0B0909",
"[  c #1A1816",
"{  c #282421",
"}  c #4D463C",
"|  c #34302A",
" . c #181614",
".. c #100C0C",
"X. c #1A1815",
"o. c #171312",
"O. c #13110F",
"+. c #161211",
"@. c #181412",
"#. c #11100F",
"$. c #524D42",
"%. c #2A2521",
"&. c #26221E",
"*. c #392F28",
"=. c #312C26",
"-. c #3B3730",
";. c #1E1B17",
":. c #48443A",
">. c #464137",
",. c #423C31",
"<. c #463F35",
"1. c #38322A",
"2. c #3D3830",
"3. c #4B463B",
"4. c #555145",
"5. c #1B1815",
/* pixels */
"                      . X             . .           o O O O + + ",
"@       # # $ # % % & * X     = & # # * * # # =     - O + ; ; : ",
"> % = = , , , , < < $ 1 2 = = < $ , , 1 1 , $ < = = o O : : : : ",
"> 3 4 4 4 4 4 4 4 4 4 5 6 4 4 4 4 4 4 5 5 4 4 4 4 4 7 ; + + 8 : ",
"> 9 0 q w e e r r e t t t t w r y y u u u u i e r r p ; : + + + ",
"> 9 a s d f g d d d q w d d d d h a j u u k f l z z x c v : : + ",
"> 9 r 0 q w f u u b q n u u u u i h q n n e m M , # N B V : + + ",
"  9 r t t r r r r r r d d j u u u d r r r r z , # > @ > C O O O ",
"  9 f g g f r d d w q a l s d l r r f 6 4 4 j Z A > @ > C O + ; ",
"  S s f j l r d d d d s l a q 0 r r D 9 , , F   A > @ > C + : : ",
"A G H d f l a d d d w q q y z F F s D , , , F   A > @ > C O : : ",
"C 6 0 q 0 r a l r r r r r F D 5 D f D , , $ J   A > @ > C O O : ",
"> G H d l r r r K f f s y L D 9 4 P 4 , , # I   A > U > C O O O ",
"> Y d d l r a l f D D F q T D , , R , , , # I   A > > > C O O O ",
"> Y d q r r r d E D D D T T D , , R , , #   I     > > > C O : : ",
"> 9 r r O O O O E D D D T T D , W d , , #   T     A > > C : : + ",
"> 9 r a O O O O Q D D D T T D , W d , , #   F       > > C O + + ",
"> 9 r l O O O o f D D 5 ! T D , W d , , #   F       > > C ; ; : ",
"> ~ O ^ O O O D f D D 4 W T D , W d , , #   d I   > > > C : O : ",
"= / O ^ O O ( D f D D 4 W T D , , R , , #   d I   > > > C O O : ",
"  ~ O ^ O O o D f D D 4 W T D ) , R , , #   d I   > > > C O + + ",
"  ~ O _ O O o D f D D 4 W T D 4 , R , , $ % d I   > U ` ' O : + ",
"  ~ O ] O O o D f D D 4 [ F D 4 , i , , , { d I     @ } | : + + ",
"  ~ O ] O O o D f D D 5  .F D 4 , z , , , , n 6     @ } | O O O ",
"  ~ O ] O O o D f D D D F F D 4 , z , , , , R =     @ } | O + ; ",
"  ~ O ] O O o D f D D o ..F D 4 , z , , , , R , #   @ } | + : : ",
"  ~ O ] O O O D e X.D o...O.o D D f , , , , R , , , C } | + : : ",
"  ~ O ] O O O +.] ( +.O ....O +.@.f , , , , #., , , ' $.| O + : ",
"  ~ O ] O O O O ] O O O ....O O +.f , , , , z , , , 3 | 3 O + + ",
"  & C C = = = = = %.C V &.C C %.= = C $ $ = = = = = o O ; ; : + ",
"  @ > > @ @ @ @ @ *.> B C > > *.@ @ > N N @     =.-.;.: : : : : ",
":.>.,.,.,.<.} } } <.,.1.& ,.,.<.} } } 2.2.} :.:.3.4.5.8 8 : : + "
};
