/* XPM */
static char *result[] = {
/* columns rows colors chars-per-pixel */
"32 32 118 2 ",
"   c #667C2F",
".  c #6E7C34",
"X  c #717C36",
"o  c #7F7B36",
"O  c #75763B",
"+  c #79763C",
"@  c #747B3A",
"#  c #7C7B3D",
"$  c #7D7A42",
"%  c #817D36",
"&  c #827E3B",
"*  c #817D43",
"=  c #827E4A",
"-  c #65832C",
";  c #65882D",
":  c #6A8D2E",
">  c #6D912F",
",  c #6E8333",
"<  c #6E8C31",
"1  c #728435",
"2  c #728B34",
"3  c #798F37",
"4  c #768439",
"5  c #7C833D",
"6  c #778938",
"7  c #7C8C3B",
"8  c #6F9431",
"9  c #6F9832",
"0  c #739433",
"q  c #799536",
"w  c #749B33",
"e  c #7A9D36",
"r  c #7B9439",
"t  c #7D9B39",
"y  c #76A135",
"u  c #7CA436",
"i  c #7DA837",
"p  c #7EA438",
"a  c #7EA938",
"s  c #7E8142",
"d  c #7F8A41",
"f  c #8A8637",
"g  c #8C8934",
"h  c #85813C",
"j  c #89853E",
"k  c #828A3D",
"l  c #8D893B",
"z  c #928D36",
"x  c #918D3B",
"c  c #82943C",
"v  c #839C3C",
"b  c #88993D",
"n  c #979332",
"m  c #999534",
"M  c #96923A",
"N  c #9A953B",
"B  c #9C993C",
"V  c #80A537",
"C  c #80A837",
"Z  c #83A23A",
"A  c #8AA33D",
"S  c #83AD39",
"D  c #8AAE3C",
"F  c #86B03A",
"G  c #8AB43B",
"H  c #8FB83C",
"J  c #91BA3D",
"K  c #858243",
"L  c #8A8642",
"P  c #848B42",
"I  c #8D8A44",
"U  c #86824B",
"Y  c #89864A",
"T  c #8E8A4B",
"R  c #918D46",
"E  c #918D4B",
"W  c #859343",
"Q  c #8A9345",
"!  c #869941",
"~  c #8A9B44",
"^  c #8D974A",
"/  c #8E9B4B",
"(  c #939146",
")  c #9A9647",
"_  c #94914D",
"`  c #99954F",
"'  c #929E4B",
"]  c #9E9A4C",
"[  c #868250",
"{  c #8B8752",
"}  c #8E8A53",
"|  c #8F8B58",
" . c #928E52",
".. c #938F58",
"X. c #959253",
"o. c #989455",
"O. c #929954",
"+. c #9E9B54",
"@. c #96925A",
"#. c #9A965C",
"$. c #979E5E",
"%. c #9B985E",
"&. c #A09C5C",
"*. c #85A343",
"=. c #8CA343",
"-. c #8EAA42",
";. c #93A343",
":. c #92AC4E",
">. c #96A156",
",. c #94A258",
"<. c #9A9661",
"1. c #9D9A64",
"2. c #9E9B69",
"3. c #A19D65",
"4. c #A19D6D",
"5. c #A39F72",
"6. c #9DA662",
"7. c #A3A070",
/* pixels */
"F C F F i S S S C i S i S F S G D a S F C C S S C a S a F G S G ",
"y S i a i G H F G G G S G S a S y S C a C G J F F G G S G a a F ",
"F H F H J J J H J G J S u e w y S Z y C H J H H H H J F a i S a ",
"-.F F i C F G G S i w e , 4 1 # # 1 4 < w 8 S F F a S a u a G F ",
"S a C C S S F y w 0 ; X + + # U { { Y $ 5 1 < u y i H i F H a F ",
"S F G J J F u w < 4 @ # * h Y 2.4.2.#.U Y # 5 u S F F H H F H G ",
"F y S S G C > : 4 + & L f & @.5.7.5.@.L T & # , : 0 u a i a a H ",
"i F G H C w p O & * L j & & 1.5.7.2.I & h # L $ 5 r y u i 9 y F ",
"S H G G S p 5 # h h % o % & <.2.1...& & # h R R T K , Z S G H F ",
"a F a u Z t # h f f L j & K T { { L h h & h L X.E $ # q F i a F ",
"S G F y 0 k h x m N o.@.T K E { = = & h j I @.T I * O t F i y F ",
"S G S 0 7 + h ) +.+.3.2.#.I Y = $ $ h L I X.E h I & K # 8 H F a ",
"H J S q # o l &.3.3.3.1.@.L j h o L K h E @.T L L L L # - a y F ",
"S S w 6 # g B 3.7.4.1.o.X.L h & I L h * o * K L & K $ # q u G F ",
"H S 2 # f m B +.3.1.%.E T @.T h j j L j h j L K K $ K U A G H H ",
"G a Z 5 f g z N X._ I E 1.3.2.X.I L j h h I R Y U T } = @ u S S ",
"D e 0 s L ( ` o. .R I R 1.3.1._ I L j h h %.%. .T  .@.$ r a a F ",
"w p t s * X.1.4.3.1.X.I E X.I h h l _ R X.#._ j h Y } # 2 i a F ",
"G H D v L <.5.5.5.5.1._ L I j I I T o.#.#.E R L h j K r < i F a ",
"G a i 2 s <.5.4.5.1.%.R I ( j j j L X.#.X.E E K & h 7 r 0 S G F ",
"a a i e v Y #.#.#.E I I _ X.X.j j j I X._ I L h I L $ 3 S -.a G ",
"a F S w c $ j h _ E E T #.#._ I E X.I I L h L E L P 5 6 e F H G ",
"F y i 0 b # K @.<.T T X.#. .o.R X.X._ I L  .%.%.E K e q 9 a a H ",
"a F F H S Z k * Y  .@.E E X.o.#._ T _ L T E <.%.Y # , u i 9 y F ",
"a J G H F D t 7 $ T } T I I R E @.X.1.<.X._ #.@.U e 0 H S G H S ",
"S F a u a a t r $ K =.X.I I I X.2.3.2.#.o._ T h # r J G G i a G ",
"S G a F i G F Z v b =.' T L h @.#.2.X._ I =.t 2 i e G H F i y F ",
"S G H H J J F S D D e v P j k I L T T 7 5 A C > G G u u F H F i ",
"J J H G S S i S a y u p Z k t k Q b b 0 2 e i i i y u u i F y F ",
"S H F i C D i 9 S G C G C p A C Z G S u i F i w S G C G S u F F ",
"G G S F F G S F G a G H H G J H H G C G G F i G G S H G H G H H ",
"G i F F i y i V a S G F y F S S G C S S i y C u C S F F y F F S ",
"G C S S 5 I _ L L Y ..@.<...} & h l I L j _ I % % & h Q :.F a G ",
};
