/* XPM */
static char *result[] = {
/* columns rows colors chars-per-pixel */
"32 32 36 1 ",
"  c #140E0E",
". c #2B2821",
"X c #1A1512",
"o c #3F3628",
"O c #231F19",
"+ c black",
"@ c #545306",
"# c gray59",
"$ c gray55",
"% c #542206",
"& c #1A0654",
"* c #54093D",
"= c #F2C279",
"- c #540607",
"; c gray44",
": c #1D1713",
"> c #78B7FF",
", c #FFFAF4",
"< c #F5B24E",
"1 c #1C1310",
"2 c #7B4E2C",
"3 c #140028",
"4 c #403728",
"5 c #19110F",
"6 c #2D2921",
"7 c #1A0A2A",
"8 c #21023F",
"9 c #2E005B",
"0 c #292522",
"q c #201C17",
"w c #2B2721",
"e c #150E0E",
"r c #2D271F",
"t c #421200",
"y c #411103",
"u c #230A01",
/* pixels */
" . XXXoo..    XX .XXXX  ..    XX",
" ..X.oo.... Xoo. ..X.  .... Xoo.",
".OX+ ...OO  ... .OXXX...OO  ....",
"XX+@+  XOoo.#$$###$$XXXXXXooXXO.",
"X+%%%+X...o#$$####$$$X.XXooo.XXX",
"+&***&+X..#$$#=====#$...XX..o..X",
"+&*-*&+XX#$#;;=====;;$...XOO..XX",
"+&***&+XX$$##;;===;;#$OOOOOXX   ",
":+%%%+XX#$#=#>,;<;>,#$XOO.ooX Xo",
"X++@++oo#$#=#===<===#$oo  .o X..",
" 1+++o..$$###===<===#$    ..  ..",
" X2+2..O###$$=$$$$$=$$ OXXXOO  .",
" o222O  #33#$#$===$#$OXX..X     ",
"..425 33333#$$$$$$$$$XX...      ",
"X.62O 33773##$$$$$$$#XXXXXO   ..",
"XX.2O 38773###$$$$$#$3X   X  ..X",
".. 2 3877773$##$$$#$$9oo..    XX",
"..===3787773$$##$$###3o..   Xoo.",
".O===37777333$##$####9.. O  .. .",
"XX===38777733$$###$$33X  XooX  .",
"   2 338877733$$#$$#93X .ooo. XX",
"O..2O333377783#$#$##33 X....o .X",
"XO.2oOO33387783#####=3XXXOO. .XX",
"  O2..O333387833###==  XXXXX    ",
"oo 2.O 333777787888 .O   .ooX Xo",
"..o2  33388787777883  ooXX.ooX..",
"...2..333333333333330o...X  .X..",
".X 2q7999333333333993w.O      X.",
"XXX2O7739993333333399 e r.    XX",
"..X2tttt333333333333tytt..  oo.X",
"X..2uuttuuO33333XuuttuuuOXO.....",
"XX.OOXX   XOO..XXX.OOXX   XOO..X"
};
